# xmcd
#
# Track frame offsets:
#	150
#	15688
#	32297
#	49402
#	68897
#	89019
#	110775
#	131692
#	145227
#	170899
#
# Disc length: 2493 seconds
#
# Revision: 1
# Processed by: cddbd v1.5.1PL0 Copyright (c) Steve Scherf et al.
# Submitted via: audiograbber 1.83.01
#
DISCID=9409bb0a
DTITLE=Various Artist - Scared Knuckles And Zoo York Presents Illegal Antidote
DYEAR=2005
DGENRE=Hip-Hop
TTITLE0=Illegal Antidote - Under The Sun
TTITLE1=Illegal Antidote - Hell Instead Of Heaven
TTITLE2=Illegal Antidote - The Dealers N' The Fiends (featuring Ken)
TTITLE3=Illegal Antidote - Life (featuring Freestyle)
TTITLE4=Illegal Antidote - Don't Even Try It
TTITLE5=Stress - The Hands That Feeds You
TTITLE6=Bucc - Where My Peeps At (featuring Scandalouz)
TTITLE7=Bucc - My Single (featuring Scandalouz) (Remix)
TTITLE8=Bucc - Where My Peeps At (featuring Scandalouz) (Screwed and Chopped)
TTITLE9=Bucc - My Single (featuring Scandalouz) (Screwed and Chopped)
EXTD=
EXTT0=
EXTT1=
EXTT2=
EXTT3=
EXTT4=
EXTT5=
EXTT6=
EXTT7=
EXTT8=
EXTT9=
PLAYORDER=
